# xmcd CD database file
# Copyright (C) 1996 Ti Kan
#
# Track frame offsets:
#  150
#  12282
#  28847
#  40107
#  53052
#  64467
#  72947
#  85295
#  95442
#  109185
#  121852
#  131122
#  140082
#  149132
#  161160
#  172667
#  184622
#  195505
#
# Disc length: 2845 seconds
#
# Revision: 2
# Processed by: cddbd v1.4b41PL1 Copyright (c) Steve Scherf et al.
# Submitted via: CDWizzard Release:4.12
#
DISCID=070b1b12
DTITLE=Frank Frost - Jelly Roll King
DYEAR=1900
DGENRE=
TTITLE0=Everything's Alright
TTITLE1=Lucky To Be Living
TTITLE2=Jelly Roll King
TTITLE3=Baby You're So Kind
TTITLE4=Gonna Make You Mine
TTITLE5=Now Twist
TTITLE6=Big Boss Man
TTITLE7=Jack's Jump
TTITLE8=So Tired Of Living By Myself
TTITLE9=Now What You Gonna Do
TTITLE10=Pocket Full Of Shells
TTITLE11=Just Come On Home
TTITLE12=Crawlback
TTITLE13=My Back Scratcher
TTITLE14=Things You Do
TTITLE15=Ride With Your Daddy Tonight
TTITLE16=Picket Full Of Money
TTITLE17=Didn't Mean No Harm
EXTD=
EXTT0=
EXTT1=
EXTT2=
EXTT3=
EXTT4=
EXTT5=
EXTT6=
EXTT7=
EXTT8=
EXTT9=
EXTT10=
EXTT11=
EXTT12=
EXTT13=
EXTT14=
EXTT15=
EXTT16=
EXTT17=
PLAYORDER=
